<svg width="209" height="52" viewBox="0 0 209 52" fill="none" xmlns="http://www.w3.org/2000/svg">
<path d="M75.1179 23.4109H75.6412L83.2827 3.52219L90.5055 3.73155L90.7148 26.2372L91.7092 39.7406H84.6435L84.9052 26.1325L84.3295 12.3674L78.0488 29.6916L71.6112 30.0056L65.7492 12.3674L65.2782 26.1325L65.6445 39.7406H59.1545L59.8873 27.0223L60.2013 4.56897L68.5232 3.2605L75.1179 23.4109Z" fill="black"/>
<path d="M101.861 39.7406C99.8027 39.7406 98.1105 39.0951 96.7845 37.8041C95.4935 36.4782 94.848 34.7161 94.848 32.5179C94.848 30.2847 95.8599 28.3657 97.8837 26.7606C99.9074 25.1207 102.367 24.3007 105.263 24.3007H108.822V23.4109C108.822 21.7012 108.474 20.5323 107.776 19.9042C107.078 19.2762 105.769 18.9621 103.85 18.9621C103.048 18.9621 102.088 19.1366 100.972 19.4855C99.89 19.7995 98.6687 20.3055 97.3079 21.0033L95.7901 16.8686C97.2905 15.8218 99.1049 14.8797 101.233 14.0423C103.397 13.2049 105.176 12.7861 106.572 12.7861C112.05 12.7861 114.789 15.438 114.789 20.7416V31C114.789 32.954 115.4 35.1348 116.621 37.5424L111.073 39.8976C110.201 38.2228 109.555 36.7224 109.136 35.3965C107.217 38.2926 104.792 39.7406 101.861 39.7406ZM104.06 34.4021C105.455 34.4021 107.043 33.6868 108.822 32.2562V28.7495C106.973 28.3308 105.473 28.1214 104.321 28.1214C102.123 28.1214 101.024 29.0984 101.024 31.0524C101.024 32.0643 101.303 32.8842 101.861 33.5123C102.42 34.1055 103.152 34.4021 104.06 34.4021Z" fill="black"/>
<path d="M118.068 44.9221C118.068 41.8516 120.929 39.444 126.652 37.6994C125.291 37.0015 124.61 36.0943 124.61 34.9778C124.61 34.5242 124.785 34.0706 125.134 33.617C125.483 33.1634 125.989 32.6923 126.652 32.2038V31.7851C124.139 31.7851 122.133 31.0873 120.633 29.6916C119.167 28.2959 118.434 26.4291 118.434 24.0913C118.434 21.0557 119.673 18.4213 122.151 16.1882C124.628 13.9202 127.559 12.7861 130.943 12.7861C131.816 12.7861 133.089 12.9606 134.764 13.3095C136.439 13.6585 138.079 13.8329 139.684 13.8329H143.714L143.191 18.3864L139.265 17.9153C139.614 18.9272 139.789 20.0787 139.789 21.3697C139.789 22.6607 139.475 23.9518 138.847 25.2428C138.253 26.4989 137.521 27.5108 136.648 28.2784C135.811 29.0461 134.956 29.7265 134.084 30.3196C133.246 30.8779 132.514 31.3839 131.886 31.8375C131.292 32.2562 130.996 32.64 130.996 32.9889C130.996 33.6519 131.694 34.2276 133.089 34.7161C136.788 36.2165 139.283 37.49 140.574 38.5368C141.9 39.5836 142.563 40.8746 142.563 42.4099C142.563 44.9919 141.254 47.1029 138.637 48.7429C136.055 50.4177 132.967 51.2551 129.373 51.2551C125.779 51.2551 122.988 50.6794 120.999 49.528C119.045 48.3765 118.068 46.8412 118.068 44.9221ZM133.874 22.9399C133.874 21.2301 133.491 19.974 132.723 19.1715C131.955 18.369 130.752 17.9677 129.112 17.9677C125.936 17.9677 124.349 19.5379 124.349 22.6782C124.349 25.7836 126.041 27.3363 129.426 27.3363C132.391 27.3363 133.874 25.8708 133.874 22.9399ZM135.759 43.195C135.759 42.5669 135.427 41.9737 134.764 41.4155C134.101 40.8921 132.915 40.264 131.205 39.5313C128.658 40.2291 126.896 40.8746 125.919 41.4678C124.977 42.061 124.506 42.7937 124.506 43.666C124.506 44.5383 124.977 45.2362 125.919 45.7596C126.896 46.3178 128.239 46.597 129.949 46.597C131.659 46.597 133.054 46.283 134.136 45.6549C135.218 45.0268 135.759 44.2069 135.759 43.195Z" fill="black"/>
<path d="M160.395 26.4989C160.395 24.0913 160.186 22.4863 159.767 21.6837C159.348 20.8812 158.371 20.4799 156.836 20.4799C155.301 20.4799 153.556 21.0906 151.602 22.3118V26.1325L152.178 38.4321L145.165 39.7406L145.793 27.0223C145.653 22.3467 145.269 18.1596 144.641 14.461L150.974 13.1002C151.218 15.1239 151.393 17.0954 151.498 19.0145C152.021 18.3166 152.614 17.6362 153.277 16.9733C153.94 16.2754 154.987 15.5078 156.417 14.6703C157.848 13.798 159.348 13.3619 160.918 13.3619C162.524 13.3619 163.867 13.9899 164.949 15.2461C166.03 16.4673 166.571 18.1422 166.571 20.2706L166.257 26.1325L166.833 38.6938L159.767 40.0023L160.395 26.4989Z" fill="black"/>
<path d="M180.773 34.4021C181.784 34.4021 182.849 34.1404 183.965 33.617C185.082 33.0936 185.954 32.5702 186.582 32.0468L187.524 31.2617L189.932 34.1927C189.583 34.7859 189.042 35.4663 188.309 36.2339C187.577 37.0015 186.826 37.6645 186.059 38.2228C185.326 38.7462 184.332 39.2347 183.075 39.6883C181.854 40.107 180.581 40.3163 179.255 40.3163C176.428 40.3163 174.126 39.2521 172.346 37.1237C170.566 34.9603 169.677 32.1864 169.677 28.8018C169.677 24.5449 170.915 20.8114 173.393 17.6013C175.87 14.3912 178.766 12.7861 182.081 12.7861C184.628 12.7861 186.6 13.5014 187.995 14.932C189.426 16.3626 190.141 18.369 190.141 20.951C190.141 22.4863 189.879 24.2309 189.356 26.1849L188.309 27.284L175.225 28.4878C175.818 32.4306 177.667 34.4021 180.773 34.4021ZM180.773 18.177C179.237 18.177 177.946 18.8051 176.899 20.0612C175.853 21.2825 175.242 22.8526 175.068 24.7717L183.965 23.6726C184.07 22.8701 184.122 22.2071 184.122 21.6837C184.122 19.3459 183.006 18.177 180.773 18.177Z" fill="black"/>
<path d="M192.873 14.461L199.206 13.1002C199.52 15.7869 199.729 18.3341 199.834 20.7416C203.009 15.8218 205.992 13.3619 208.784 13.3619L208.208 21.5267C206.184 21.5267 204.579 21.7186 203.393 22.1024C202.241 22.4514 201.055 23.1667 199.834 24.2483V26.1325L200.409 38.4321L193.396 39.7406L194.024 27.0223C193.885 22.3467 193.501 18.1596 192.873 14.461Z" fill="black"/>
<path d="M5.15478 10.0823L40.0473 0.486816V41.4855L2.53784 46.7194L5.15478 10.0823Z" fill="black"/>
<path d="M30.055 26.1285L22.8251 19.079C22.8251 19.079 29.2249 13.917 36.5651 12.9624C24.7651 10.0104 14.8477 16.3397 12.7375 17.7966C12.4798 17.9832 12.6024 18.3675 12.6024 18.3675L19.7921 25.2647C19.7921 25.2647 15.3301 29.489 10.8514 41.7598C22.9661 28.746 28.7195 26.7801 29.9478 26.5215C30.365 26.4244 30.055 26.1285 30.055 26.1285Z" fill="#FFDB31"/>
</svg>
