<svg width="210" height="51" viewBox="0 0 210 51" fill="none" xmlns="http://www.w3.org/2000/svg">
<path d="M76.1179 22.9241H76.6412L84.2827 3.03538L91.5055 3.24473L91.7148 25.7504L92.7092 39.2538H85.6435L85.9052 25.6457L85.3295 11.8806L79.0488 29.2048L72.6112 29.5188L66.7492 11.8806L66.2782 25.6457L66.6445 39.2538H60.1545L60.8873 26.5355L61.2013 4.08215L69.5232 2.77368L76.1179 22.9241Z" fill="black"/>
<path d="M102.861 39.2538C100.803 39.2538 99.1105 38.6083 97.7845 37.3173C96.4935 35.9913 95.848 34.2293 95.848 32.031C95.848 29.7979 96.8599 27.8788 98.8837 26.2738C100.907 24.6338 103.367 23.8139 106.263 23.8139H109.822V22.9241C109.822 21.2144 109.474 20.0455 108.776 19.4174C108.078 18.7893 106.769 18.4753 104.85 18.4753C104.048 18.4753 103.088 18.6498 101.972 18.9987C100.89 19.3127 99.6687 19.8187 98.3079 20.5165L96.7901 16.3818C98.2905 15.335 100.105 14.3929 102.233 13.5555C104.397 12.718 106.176 12.2993 107.572 12.2993C113.05 12.2993 115.789 14.9512 115.789 20.2548V30.5132C115.789 32.4672 116.4 34.648 117.621 37.0556L112.073 39.4108C111.201 37.736 110.555 36.2356 110.136 34.9097C108.217 37.8058 105.792 39.2538 102.861 39.2538ZM105.06 33.9152C106.455 33.9152 108.043 33.1999 109.822 31.7694V28.2627C107.973 27.8439 106.473 27.6346 105.321 27.6346C103.123 27.6346 102.024 28.6116 102.024 30.5656C102.024 31.5774 102.303 32.3974 102.861 33.0255C103.42 33.6187 104.152 33.9152 105.06 33.9152Z" fill="black"/>
<path d="M119.068 44.4353C119.068 41.3648 121.929 38.9572 127.652 37.2126C126.291 36.5147 125.61 35.6075 125.61 34.491C125.61 34.0374 125.785 33.5838 126.134 33.1302C126.483 32.6766 126.989 32.2055 127.652 31.717V31.2983C125.139 31.2983 123.133 30.6005 121.633 29.2048C120.167 27.8091 119.434 25.9423 119.434 23.6045C119.434 20.5689 120.673 17.9345 123.151 15.7014C125.628 13.4333 128.559 12.2993 131.943 12.2993C132.816 12.2993 134.089 12.4738 135.764 12.8227C137.439 13.1716 139.079 13.3461 140.684 13.3461H144.714L144.191 17.8996L140.265 17.4285C140.614 18.4404 140.789 19.5919 140.789 20.8829C140.789 22.1739 140.475 23.4649 139.847 24.756C139.253 26.0121 138.521 27.024 137.648 27.7916C136.811 28.5592 135.956 29.2396 135.084 29.8328C134.246 30.3911 133.514 30.897 132.886 31.3506C132.292 31.7694 131.996 32.1532 131.996 32.5021C131.996 33.1651 132.694 33.7408 134.089 34.2293C137.788 35.7297 140.283 37.0032 141.574 38.05C142.9 39.0968 143.563 40.3878 143.563 41.9231C143.563 44.5051 142.254 46.6161 139.637 48.2561C137.055 49.9309 133.967 50.7683 130.373 50.7683C126.779 50.7683 123.988 50.1926 121.999 49.0411C120.045 47.8897 119.068 46.3544 119.068 44.4353ZM134.874 22.4531C134.874 20.7433 134.491 19.4872 133.723 18.6847C132.955 17.8821 131.752 17.4809 130.112 17.4809C126.936 17.4809 125.349 19.051 125.349 22.1914C125.349 25.2968 127.041 26.8495 130.426 26.8495C133.391 26.8495 134.874 25.384 134.874 22.4531ZM136.759 42.7082C136.759 42.0801 136.427 41.4869 135.764 40.9286C135.101 40.4052 133.915 39.7772 132.205 39.0444C129.658 39.7423 127.896 40.3878 126.919 40.981C125.977 41.5741 125.506 42.3069 125.506 43.1792C125.506 44.0515 125.977 44.7494 126.919 45.2728C127.896 45.831 129.239 46.1102 130.949 46.1102C132.659 46.1102 134.054 45.7961 135.136 45.1681C136.218 44.54 136.759 43.72 136.759 42.7082Z" fill="black"/>
<path d="M161.395 26.0121C161.395 23.6045 161.186 21.9994 160.767 21.1969C160.348 20.3944 159.371 19.9931 157.836 19.9931C156.301 19.9931 154.556 20.6038 152.602 21.825V25.6457L153.178 37.9453L146.165 39.2538L146.793 26.5355C146.653 21.8599 146.269 17.6728 145.641 13.9742L151.974 12.6134C152.218 14.6371 152.393 16.6086 152.498 18.5276C153.021 17.8298 153.614 17.1494 154.277 16.4864C154.94 15.7886 155.987 15.021 157.417 14.1835C158.848 13.3112 160.348 12.8751 161.918 12.8751C163.524 12.8751 164.867 13.5031 165.949 14.7593C167.03 15.9805 167.571 17.6553 167.571 19.7838L167.257 25.6457L167.833 38.207L160.767 39.5155L161.395 26.0121Z" fill="black"/>
<path d="M181.773 33.9152C182.784 33.9152 183.849 33.6535 184.965 33.1302C186.082 32.6068 186.954 32.0834 187.582 31.56L188.524 30.7749L190.932 33.7059C190.583 34.2991 190.042 34.9795 189.309 35.7471C188.577 36.5147 187.826 37.1777 187.059 37.736C186.326 38.2594 185.332 38.7479 184.075 39.2015C182.854 39.6202 181.581 39.8295 180.255 39.8295C177.428 39.8295 175.126 38.7653 173.346 36.6369C171.566 34.4735 170.677 31.6996 170.677 28.315C170.677 24.0581 171.915 20.3246 174.393 17.1145C176.87 13.9044 179.766 12.2993 183.081 12.2993C185.628 12.2993 187.6 13.0146 188.995 14.4452C190.426 15.8758 191.141 17.8821 191.141 20.4642C191.141 21.9995 190.879 23.7441 190.356 25.6981L189.309 26.7972L176.225 28.001C176.818 31.9438 178.667 33.9152 181.773 33.9152ZM181.773 17.6902C180.237 17.6902 178.946 18.3183 177.899 19.5744C176.853 20.7957 176.242 22.3658 176.068 24.2849L184.965 23.1858C185.07 22.3833 185.122 21.7203 185.122 21.1969C185.122 18.8591 184.006 17.6902 181.773 17.6902Z" fill="black"/>
<path d="M193.873 13.9742L200.206 12.6134C200.52 15.3001 200.729 17.8472 200.834 20.2548C204.009 15.335 206.992 12.8751 209.784 12.8751L209.208 21.0399C207.184 21.0399 205.579 21.2318 204.393 21.6156C203.241 21.9646 202.055 22.6799 200.834 23.7615V25.6457L201.409 37.9453L194.396 39.2538L195.024 26.5355C194.885 21.8599 194.501 17.6728 193.873 13.9742Z" fill="black"/>
<path d="M4.41015 9.59544L39.3026 0V40.9987L1.79321 46.2326L4.41015 9.59544Z" fill="#FFDB31"/>
<path d="M29.3104 25.6417L22.0805 18.5922C22.0805 18.5922 28.4802 13.4301 35.8205 12.4756C24.0205 9.52361 14.1031 15.8528 11.9928 17.3098C11.7352 17.4963 11.8578 17.8807 11.8578 17.8807L19.0475 24.7779C19.0475 24.7779 14.5854 29.0022 10.1068 41.273C22.2215 28.2592 27.9749 26.2933 29.2032 26.0347C29.6204 25.9376 29.3104 25.6417 29.3104 25.6417Z" fill="black"/>
</svg>
