<svg width="24" height="24" viewBox="0 0 24 24" fill="none" xmlns="http://www.w3.org/2000/svg">
<path d="M20.5 9.03451C19.2743 5.52092 15.9315 3 12 3C8.46628 3 5.40822 5.03656 3.93552 8C3.76973 8.33362 3.62403 8.67898 3.5 9.03451M20.5 9.03451C20.8239 9.96308 21 10.961 21 12C21 13.039 20.8239 14.0369 20.5 14.9655M20.5 9.03451H3.5M3.5 9.03451C3.17607 9.96308 3 10.961 3 12C3 13.039 3.17607 14.0369 3.5 14.9655M3.5 14.9655C4.72571 18.4791 8.06846 21 12 21C15.9315 21 19.2743 18.4791 20.5 14.9655M3.5 14.9655H20.5" stroke="black" stroke-width="2" stroke-linecap="round" stroke-linejoin="round"/>
<path d="M12 21C16.9706 16.0294 16.9706 7.97056 12 3C7.02944 7.97056 7.02944 16.0294 12 21Z" stroke="black" stroke-width="2" stroke-linecap="round" stroke-linejoin="round"/>
</svg>
