<svg width="18" height="18" viewBox="0 0 18 18" fill="none" xmlns="http://www.w3.org/2000/svg">
<path fill-rule="evenodd" clip-rule="evenodd" d="M5.12625 5.34449H2.07238C3.04912 3.39634 4.86837 1.94565 7.05106 1.46874C6.15867 2.65609 5.51707 3.97211 5.12625 5.34449ZM4.83349 6.64449H1.56996C1.39431 7.27258 1.30024 7.93529 1.30024 8.62089C1.30024 9.30648 1.39431 9.9692 1.56996 10.5973H4.83349C4.61481 9.2895 4.61481 7.95227 4.83349 6.64449ZM6.15392 10.5973C5.908 9.29209 5.908 7.94969 6.15392 6.64449H11.0883C11.3343 7.94969 11.3343 9.29209 11.0883 10.5973H6.15392ZM5.12625 11.8973H2.07235C3.04866 13.8449 4.86806 15.296 7.05104 15.773C6.15866 14.5857 5.51707 13.2697 5.12625 11.8973ZM10.1912 15.773C12.3742 15.296 14.1936 13.8449 15.1699 11.8973H12.116C11.7252 13.2697 11.0836 14.5857 10.1912 15.773ZM10.7572 11.8973C10.3215 13.2453 9.60943 14.5234 8.62113 15.6431C7.63283 14.5234 6.9208 13.2453 6.48502 11.8973H10.7572ZM12.4088 10.5973H15.6723C15.848 9.9692 15.942 9.30648 15.942 8.62089C15.942 7.93529 15.848 7.27258 15.6723 6.64449H12.4088C12.6275 7.95227 12.6275 9.2895 12.4088 10.5973ZM12.116 5.34449H15.1699C14.1936 3.3969 12.3742 1.94582 10.1912 1.46878C11.0836 2.65611 11.7252 3.97212 12.116 5.34449ZM10.7572 5.34449H6.48502C6.9208 3.99649 7.63283 2.71837 8.62113 1.59871C9.60943 2.71837 10.3215 3.99649 10.7572 5.34449ZM8.62113 0C5.23531 0 2.30659 1.95197 0.896707 4.789C0.737849 5.10866 0.598216 5.43963 0.479343 5.78039C0.16877 6.67067 0.000244141 7.62679 0.000244141 8.62089C0.000244141 9.61499 0.16877 10.5711 0.479343 11.4614C1.65313 14.8261 4.85419 17.2418 8.62113 17.2418C12.3881 17.2418 15.5891 14.8261 16.7629 11.4614C17.0735 10.5711 17.242 9.61499 17.242 8.62089C17.242 7.62679 17.0735 6.67067 16.7629 5.78039C15.5891 2.41565 12.3881 0 8.62113 0Z" fill="#616367"/>
</svg>
