<svg width="16" height="16" viewBox="0 0 16 16" fill="none" xmlns="http://www.w3.org/2000/svg">
<path d="M9.39554 15H6.28443L5.8559 13.0716C5.34168 12.8703 4.86556 12.593 4.44131 12.2536L2.55556 12.8471L1 10.1528L2.45642 8.81693C2.41633 8.55045 2.39554 8.27765 2.39554 8C2.39554 7.72234 2.41633 7.44954 2.45643 7.18306L1 5.84714L2.55556 3.15284L4.44133 3.74638C4.86557 3.40697 5.34169 3.1297 5.8559 2.92839L6.28443 1H9.39554L9.82407 2.92839C10.3383 3.1297 10.8144 3.40696 11.2386 3.74637L13.1244 3.15284L14.6799 5.84714L13.2235 7.18301C13.2636 7.4495 13.2844 7.72232 13.2844 8C13.2844 8.27767 13.2636 8.55049 13.2235 8.81698L14.6799 10.1528L13.1244 12.8471L11.2386 12.2536C10.8144 12.593 10.3383 12.8703 9.82407 13.0716L9.39554 15Z" stroke="#616367" stroke-linecap="round" stroke-linejoin="round"/>
<circle cx="7.83864" cy="8.0002" r="2.33333" stroke="#616367"/>
</svg>
